# xmcd
# Copyright (C) 1995-1998 Ti Kan
#
# Track frame offsets:
#       150
#       10208
#       24953
#       39689
#       56751
#       66296
#       83310
#       101434
#       120985
#       137070
#       159975
#       180456
#       208090
#       226835
#       257938
#       276332
#
# Disc length: 3942 seconds
#
# Revision: 0
# Processed by: cddbd v1.5.2PL0 Copyright (c) Steve Scherf et al.
# Submitted via: CD-Import v1.0
#
DISCID=ce0f6410
DTITLE=Various Artist - The Best Of Demotape Clinic 2007
DYEAR=07
DGENRE=
TTITLE0=Julie Rocks U - Julie
TTITLE1=Jesh - Neurotic Thoughts
TTITLE2=Zertiko - Amne Punkt
TTITLE3=Naty - Hypomachos
TTITLE4=Fölein Da Capo - Fuck Off Song
TTITLE5=The Gamebois - If I Ever
TTITLE6=Alina Amuri - Be One With Me
TTITLE7=Huck Finn - Space Odissey
TTITLE8=Air Sonic - There's A Plane Ready For Us
TTITLE9=Slanted -  Who Do You Think You Are?
TTITLE10=Humanoids - Underside
TTITLE11=The Passive Resistance - Dog Tag
TTITLE12=Monka - The End Of Time
TTITLE13=Illeist Sound Collective - Half Time
TTITLE14=Merge Of Equals - Hoshi No Namida
TTITLE15=John Tennon - Cut
EXTD=
EXTT0=
EXTT1=
EXTT2=
EXTT3=
EXTT4=
EXTT5=
EXTT6=
EXTT7=
EXTT8=
EXTT9=
EXTT10=
EXTT11=
EXTT12=
EXTT13=
EXTT14=
EXTT15=
PLAYORDER=
